<?xml version="1.0" encoding="UTF-8" standalone="no"?><!DOCTYPE svg PUBLIC "-//W3C//DTD SVG 1.1//EN" "http://www.w3.org/Graphics/SVG/1.1/DTD/svg11.dtd"><svg width="100%" height="100%" viewBox="0 0 1182 1182" version="1.1" xmlns="http://www.w3.org/2000/svg" xmlns:xlink="http://www.w3.org/1999/xlink" xml:space="preserve" xmlns:serif="http://www.serif.com/" style="fill-rule:evenodd;clip-rule:evenodd;stroke-linejoin:round;stroke-miterlimit:2;"><g><path d="M110.831,810.632c23.768,0 43.089,19.376 43.089,43.071c-0,23.878 -19.321,43.199 -43.089,43.199c-23.732,-0 -43.126,-19.321 -43.126,-43.199c0,-23.695 19.394,-43.071 43.126,-43.071Zm-0,120.008c42.761,-0 77.611,-34.777 77.611,-77.648c0,-42.761 -34.85,-77.593 -77.611,-77.593c-42.816,-0 -77.557,34.832 -77.557,77.593c0,42.871 34.741,77.648 77.557,77.648Z" style="fill:#14753b;fill-rule:nonzero;"/><path d="M405.747,503.468c23.75,-0 43.089,19.338 43.089,43.089c0,23.823 -19.339,43.18 -43.089,43.18c-23.768,-0 -43.144,-19.357 -43.144,-43.18c0,-23.751 19.376,-43.089 43.144,-43.089Zm-0.018,119.953c42.743,-0 77.611,-34.741 77.611,-77.611c0,-42.762 -34.868,-77.576 -77.611,-77.576c-42.798,0 -77.575,34.814 -77.575,77.576c-0,42.87 34.777,77.611 77.575,77.611Z" style="fill:#14753b;fill-rule:nonzero;"/><path d="M696.544,749.207c23.732,-0 43.07,19.321 43.07,43.052c0,23.878 -19.338,43.217 -43.07,43.217c-23.769,0 -43.162,-19.339 -43.162,-43.217c-0,-23.731 19.393,-43.052 43.162,-43.052Zm-0.037,119.971c42.779,0 77.648,-34.759 77.648,-77.629c0,-42.762 -34.869,-77.594 -77.648,-77.594c-42.779,0 -77.575,34.832 -77.575,77.594c0,42.87 34.796,77.629 77.575,77.629Z" style="fill:#14753b;fill-rule:nonzero;"/><path d="M316.835,617.734l-138.983,142.664c9.989,7.291 18.774,16.095 25.992,26.101l140.532,-144.195c-10.444,-6.689 -19.758,-14.964 -27.541,-24.57Z" style="fill:#14753b;fill-rule:nonzero;"/><path d="M978.828,374.073l-230.027,315.786c11.009,5.705 21.034,13.123 29.619,21.927l227.512,-312.323c-10.371,-6.926 -19.485,-15.548 -27.104,-25.39Z" style="fill:#14753b;fill-rule:nonzero;"/><path d="M615.25,711.13l-116.016,-99.466c-7.181,10.134 -15.93,18.993 -25.937,26.32l120.555,103.33c5.504,-11.191 12.686,-21.417 21.398,-30.184Z" style="fill:#14753b;fill-rule:nonzero;"/><path d="M1069.24,261.811c23.75,0 43.089,19.339 43.089,43.071c0,23.859 -19.339,43.199 -43.089,43.199c-23.768,-0 -43.144,-19.34 -43.144,-43.199c0,-23.732 19.376,-43.071 43.144,-43.071Zm0,119.954c42.743,-0 77.593,-34.723 77.593,-77.612c0,-42.761 -34.85,-77.539 -77.593,-77.539c-42.816,0 -77.575,34.778 -77.575,77.539c0,42.889 34.759,77.612 77.575,77.612Z" style="fill:#14753b;fill-rule:nonzero;"/></g></svg>