<svg width="25" height="16" xmlns="http://www.w3.org/2000/svg" version="1.1" xml:space="preserve" clip-rule="evenodd">
 <g>
  <title>Layer 1</title>
  <g stroke="null" id="svg_1">
   <path stroke="null" d="m1.71048,12.88021c0.52419,0 0.95031,0.42733 0.95031,0.94991c0,0.52662 -0.42612,0.95273 -0.95031,0.95273c-0.5234,0 -0.95112,-0.42611 -0.95112,-0.95273c0,-0.52258 0.42772,-0.94991 0.95112,-0.94991zm0,2.64671c0.94307,0 1.71167,-0.76699 1.71167,-1.71249c0,-0.94307 -0.7686,-1.71127 -1.71167,-1.71127c-0.94428,0 -1.71048,0.7682 -1.71048,1.71127c0,0.9455 0.76619,1.71249 1.71048,1.71249z" fill="#000000" fill-rule="nonzero" id="svg_2"/>
   <path stroke="null" d="m8.2147,6.10587c0.52379,0 0.9503,0.42649 0.9503,0.95031c0,0.5254 -0.42651,0.95231 -0.9503,0.95231c-0.52419,0 -0.95152,-0.42691 -0.95152,-0.95231c0,-0.52382 0.42733,-0.95031 0.95152,-0.95031zm-0.0004,2.6455c0.94268,0 1.71167,-0.7662 1.71167,-1.71167c0,-0.94309 -0.76899,-1.7109 -1.71167,-1.7109c-0.94389,0 -1.71088,0.76781 -1.71088,1.7109c0,0.94548 0.76699,1.71167 1.71088,1.71167z" fill="#000000" fill-rule="nonzero" id="svg_3"/>
   <path stroke="null" d="m14.62808,11.52552c0.5234,0 0.94989,0.42611 0.94989,0.94949c0,0.52662 -0.42649,0.95313 -0.94989,0.95313c-0.52421,0 -0.95192,-0.42651 -0.95192,-0.95313c0,-0.52337 0.4277,-0.94949 0.95192,-0.94949zm-0.00082,2.6459c0.94347,0 1.71249,-0.76659 1.71249,-1.71207c0,-0.9431 -0.76902,-1.7113 -1.71249,-1.7113c-0.94347,0 -1.71088,0.7682 -1.71088,1.7113c0,0.94547 0.76741,1.71207 1.71088,1.71207z" fill="#000000" fill-rule="nonzero" id="svg_4"/>
   <path stroke="null" d="m6.25379,8.62595l-3.0652,3.14638c0.2203,0.1608 0.41405,0.35497 0.57324,0.57564l3.09936,-3.18014c-0.23034,-0.14752 -0.43575,-0.33002 -0.6074,-0.54188z" fill="#000000" fill-rule="nonzero" id="svg_5"/>
   <path stroke="null" d="m20.8537,3.25213l-5.07313,6.96449c0.2428,0.12582 0.46389,0.28942 0.65323,0.48359l5.01766,-6.88812c-0.22873,-0.15275 -0.42973,-0.3429 -0.59776,-0.55996z" fill="#000000" fill-rule="nonzero" id="svg_6"/>
   <path stroke="null" d="m12.83518,10.68575l-2.55867,-2.19367c-0.15837,0.2235 -0.35133,0.41888 -0.57203,0.58047l2.65878,2.27889c0.12139,-0.24681 0.27979,-0.47235 0.47192,-0.6657z" fill="#000000" fill-rule="nonzero" id="svg_7"/>
   <path stroke="null" d="m22.84769,0.77625c0.52379,0 0.9503,0.42651 0.9503,0.94991c0,0.5262 -0.42651,0.95273 -0.9503,0.95273c-0.52419,0 -0.95152,-0.42654 -0.95152,-0.95273c0,-0.5234 0.42733,-0.94991 0.95152,-0.94991zm0,2.64553c0.94267,0 1.71127,-0.7658 1.71127,-1.7117c0,-0.94307 -0.76859,-1.71008 -1.71127,-1.71008c-0.94429,0 -1.71088,0.76701 -1.71088,1.71008c0,0.9459 0.76659,1.7117 1.71088,1.7117z" fill="#000000" fill-rule="nonzero" id="svg_8"/>
  </g>
 </g>

</svg>
